<mxfile host="app.diagrams.net" agent="Mozilla/5.0 (Windows NT 10.0; Win64; x64) AppleWebKit/537.36 (KHTML, like Gecko) Chrome/129.0.0.0 Safari/537.36" version="24.7.17">
  <diagram name="Page-1" id="58cdce13-f638-feb5-8d6f-7d28b1aa9fa0">
    <mxGraphModel dx="1562" dy="1695" grid="1" gridSize="10" guides="1" tooltips="1" connect="1" arrows="1" fold="1" page="1" pageScale="1" pageWidth="1100" pageHeight="850" background="none" math="0" shadow="0">
      <root>
        <mxCell id="0" />
        <mxCell id="1" parent="0" />
        <mxCell id="382b91b5511bd0f7-1" value="" style="ellipse;html=1;shape=startState;fillColor=#000000;strokeColor=#ff0000;rounded=1;shadow=0;comic=0;labelBackgroundColor=none;fontFamily=Verdana;fontSize=12;fontColor=#000000;align=center;direction=south;" parent="1" vertex="1">
          <mxGeometry x="530" y="-330" width="30" height="30" as="geometry" />
        </mxCell>
        <mxCell id="382b91b5511bd0f7-5" value="待预审" style="rounded=1;whiteSpace=wrap;html=1;arcSize=24;fillColor=#ffffc0;strokeColor=#ff0000;shadow=0;comic=0;labelBackgroundColor=none;fontFamily=Verdana;fontSize=12;fontColor=#000000;align=center;" parent="1" vertex="1">
          <mxGeometry x="490" width="120" height="60" as="geometry" />
        </mxCell>
        <mxCell id="pL6nJIlF7tV2qEfX6wqD-6" style="edgeStyle=orthogonalEdgeStyle;rounded=0;orthogonalLoop=1;jettySize=auto;html=1;entryX=0.5;entryY=0;entryDx=0;entryDy=0;strokeColor=#FF0000;" edge="1" parent="1" source="382b91b5511bd0f7-6" target="382b91b5511bd0f7-7">
          <mxGeometry relative="1" as="geometry" />
        </mxCell>
        <mxCell id="pL6nJIlF7tV2qEfX6wqD-7" value="缓冲时间" style="edgeLabel;html=1;align=center;verticalAlign=middle;resizable=0;points=[];" vertex="1" connectable="0" parent="pL6nJIlF7tV2qEfX6wqD-6">
          <mxGeometry x="-0.1294" relative="1" as="geometry">
            <mxPoint y="-1" as="offset" />
          </mxGeometry>
        </mxCell>
        <mxCell id="382b91b5511bd0f7-6" value="待提交" style="rounded=1;whiteSpace=wrap;html=1;arcSize=24;fillColor=#ffffc0;strokeColor=#ff0000;shadow=0;comic=0;labelBackgroundColor=none;fontFamily=Verdana;fontSize=12;fontColor=#000000;align=center;" parent="1" vertex="1">
          <mxGeometry x="485" y="-230" width="120" height="60" as="geometry" />
        </mxCell>
        <mxCell id="382b91b5511bd0f7-7" value="已提交" style="rounded=1;whiteSpace=wrap;html=1;arcSize=24;fillColor=#ffffc0;strokeColor=#ff0000;shadow=0;comic=0;labelBackgroundColor=none;fontFamily=Verdana;fontSize=12;fontColor=#000000;align=center;" parent="1" vertex="1">
          <mxGeometry x="485" y="-120" width="120" height="60" as="geometry" />
        </mxCell>
        <mxCell id="2a3bc250acf0617d-9" style="edgeStyle=orthogonalEdgeStyle;html=1;labelBackgroundColor=none;endArrow=open;endSize=8;strokeColor=#ff0000;fontFamily=Verdana;fontSize=12;align=left;" parent="1" source="382b91b5511bd0f7-1" target="382b91b5511bd0f7-6" edge="1">
          <mxGeometry relative="1" as="geometry" />
        </mxCell>
        <mxCell id="pL6nJIlF7tV2qEfX6wqD-5" value="前端提交请求" style="edgeLabel;html=1;align=center;verticalAlign=middle;resizable=0;points=[];" vertex="1" connectable="0" parent="2a3bc250acf0617d-9">
          <mxGeometry x="-0.126" y="-3" relative="1" as="geometry">
            <mxPoint as="offset" />
          </mxGeometry>
        </mxCell>
        <mxCell id="2a3bc250acf0617d-15" style="edgeStyle=orthogonalEdgeStyle;html=1;exitX=1;exitY=0.5;labelBackgroundColor=none;endArrow=open;endSize=8;strokeColor=#ff0000;fontFamily=Verdana;fontSize=12;align=left;exitDx=0;exitDy=0;entryX=0;entryY=0.75;entryDx=0;entryDy=0;" parent="1" source="382b91b5511bd0f7-5" target="pL6nJIlF7tV2qEfX6wqD-25" edge="1">
          <mxGeometry relative="1" as="geometry">
            <mxPoint x="695.0600000000004" y="29.410000000000025" as="sourcePoint" />
            <mxPoint x="605" y="-90" as="targetPoint" />
            <Array as="points">
              <mxPoint x="605" y="29" />
              <mxPoint x="860" y="29" />
            </Array>
          </mxGeometry>
        </mxCell>
        <mxCell id="pL6nJIlF7tV2qEfX6wqD-9" value="驳回" style="edgeLabel;html=1;align=center;verticalAlign=middle;resizable=0;points=[];" vertex="1" connectable="0" parent="2a3bc250acf0617d-15">
          <mxGeometry x="-0.6516" relative="1" as="geometry">
            <mxPoint x="-21" y="1" as="offset" />
          </mxGeometry>
        </mxCell>
        <mxCell id="pL6nJIlF7tV2qEfX6wqD-3" value="初始态&lt;div&gt;（已分配）&lt;/div&gt;" style="shape=note;whiteSpace=wrap;html=1;backgroundOutline=1;darkOpacity=0.05;fillColor=#FFFFC0;" vertex="1" parent="1">
          <mxGeometry x="350" y="-370" width="70" height="92" as="geometry" />
        </mxCell>
        <mxCell id="pL6nJIlF7tV2qEfX6wqD-4" value="" style="endArrow=none;dashed=1;html=1;dashPattern=1 3;strokeWidth=2;rounded=0;entryX=0.5;entryY=1;entryDx=0;entryDy=0;" edge="1" parent="1" target="382b91b5511bd0f7-1">
          <mxGeometry width="50" height="50" relative="1" as="geometry">
            <mxPoint x="430" y="-315" as="sourcePoint" />
            <mxPoint x="470" y="-350" as="targetPoint" />
          </mxGeometry>
        </mxCell>
        <mxCell id="pL6nJIlF7tV2qEfX6wqD-10" style="edgeStyle=orthogonalEdgeStyle;rounded=0;orthogonalLoop=1;jettySize=auto;html=1;strokeColor=#FF0000;exitX=0.5;exitY=1;exitDx=0;exitDy=0;" edge="1" parent="1" source="382b91b5511bd0f7-7">
          <mxGeometry relative="1" as="geometry">
            <mxPoint x="549" y="-60" as="sourcePoint" />
            <mxPoint x="545" as="targetPoint" />
          </mxGeometry>
        </mxCell>
        <mxCell id="pL6nJIlF7tV2qEfX6wqD-11" value="提交预审" style="edgeLabel;html=1;align=center;verticalAlign=middle;resizable=0;points=[];" vertex="1" connectable="0" parent="pL6nJIlF7tV2qEfX6wqD-10">
          <mxGeometry x="-0.1294" relative="1" as="geometry">
            <mxPoint y="-1" as="offset" />
          </mxGeometry>
        </mxCell>
        <mxCell id="pL6nJIlF7tV2qEfX6wqD-12" value="待审核" style="rounded=1;whiteSpace=wrap;html=1;arcSize=24;fillColor=#ffffc0;strokeColor=#ff0000;shadow=0;comic=0;labelBackgroundColor=none;fontFamily=Verdana;fontSize=12;fontColor=#000000;align=center;" vertex="1" parent="1">
          <mxGeometry x="485" y="120" width="120" height="60" as="geometry" />
        </mxCell>
        <mxCell id="pL6nJIlF7tV2qEfX6wqD-13" value="默认自动提交，被驳回需人工提交" style="shape=note;whiteSpace=wrap;html=1;backgroundOutline=1;darkOpacity=0.05;fillColor=#FFFFC0;" vertex="1" parent="1">
          <mxGeometry x="350" y="-92" width="70" height="92" as="geometry" />
        </mxCell>
        <mxCell id="pL6nJIlF7tV2qEfX6wqD-14" value="" style="endArrow=none;dashed=1;html=1;dashPattern=1 3;strokeWidth=2;rounded=0;entryX=0.5;entryY=1;entryDx=0;entryDy=0;" edge="1" parent="1">
          <mxGeometry width="50" height="50" relative="1" as="geometry">
            <mxPoint x="430" y="-40" as="sourcePoint" />
            <mxPoint x="530" y="-40" as="targetPoint" />
          </mxGeometry>
        </mxCell>
        <mxCell id="pL6nJIlF7tV2qEfX6wqD-15" value="待发布" style="rounded=1;whiteSpace=wrap;html=1;arcSize=24;fillColor=#ffffc0;strokeColor=#ff0000;shadow=0;comic=0;labelBackgroundColor=none;fontFamily=Verdana;fontSize=12;fontColor=#000000;align=center;" vertex="1" parent="1">
          <mxGeometry x="485" y="240" width="120" height="60" as="geometry" />
        </mxCell>
        <mxCell id="pL6nJIlF7tV2qEfX6wqD-17" style="edgeStyle=orthogonalEdgeStyle;rounded=0;orthogonalLoop=1;jettySize=auto;html=1;entryX=0.5;entryY=0;entryDx=0;entryDy=0;strokeColor=#FF0000;exitX=0.5;exitY=1;exitDx=0;exitDy=0;" edge="1" parent="1">
          <mxGeometry relative="1" as="geometry">
            <mxPoint x="544.5799999999999" y="60" as="sourcePoint" />
            <mxPoint x="544.5799999999999" y="120" as="targetPoint" />
          </mxGeometry>
        </mxCell>
        <mxCell id="pL6nJIlF7tV2qEfX6wqD-18" value="自动提交预审核" style="edgeLabel;html=1;align=center;verticalAlign=middle;resizable=0;points=[];" vertex="1" connectable="0" parent="pL6nJIlF7tV2qEfX6wqD-17">
          <mxGeometry x="-0.1294" relative="1" as="geometry">
            <mxPoint y="-1" as="offset" />
          </mxGeometry>
        </mxCell>
        <mxCell id="pL6nJIlF7tV2qEfX6wqD-19" style="edgeStyle=orthogonalEdgeStyle;html=1;exitX=1;exitY=0.5;labelBackgroundColor=none;endArrow=open;endSize=8;strokeColor=#ff0000;fontFamily=Verdana;fontSize=12;align=left;exitDx=0;exitDy=0;entryX=0;entryY=0.5;entryDx=0;entryDy=0;" edge="1" parent="1" target="pL6nJIlF7tV2qEfX6wqD-25">
          <mxGeometry relative="1" as="geometry">
            <mxPoint x="605" y="150" as="sourcePoint" />
            <mxPoint x="610" y="-90" as="targetPoint" />
            <Array as="points">
              <mxPoint x="605" y="149" />
              <mxPoint x="860" y="149" />
            </Array>
          </mxGeometry>
        </mxCell>
        <mxCell id="pL6nJIlF7tV2qEfX6wqD-20" value="驳回" style="edgeLabel;html=1;align=center;verticalAlign=middle;resizable=0;points=[];" vertex="1" connectable="0" parent="pL6nJIlF7tV2qEfX6wqD-19">
          <mxGeometry x="-0.6516" relative="1" as="geometry">
            <mxPoint as="offset" />
          </mxGeometry>
        </mxCell>
        <mxCell id="pL6nJIlF7tV2qEfX6wqD-21" style="edgeStyle=orthogonalEdgeStyle;rounded=0;orthogonalLoop=1;jettySize=auto;html=1;entryX=0.5;entryY=0;entryDx=0;entryDy=0;strokeColor=#FF0000;exitX=0.5;exitY=1;exitDx=0;exitDy=0;" edge="1" parent="1">
          <mxGeometry relative="1" as="geometry">
            <mxPoint x="544.5799999999999" y="180" as="sourcePoint" />
            <mxPoint x="544.5799999999999" y="240" as="targetPoint" />
          </mxGeometry>
        </mxCell>
        <mxCell id="pL6nJIlF7tV2qEfX6wqD-22" value="审核通过" style="edgeLabel;html=1;align=center;verticalAlign=middle;resizable=0;points=[];" vertex="1" connectable="0" parent="pL6nJIlF7tV2qEfX6wqD-21">
          <mxGeometry x="-0.1294" relative="1" as="geometry">
            <mxPoint y="-1" as="offset" />
          </mxGeometry>
        </mxCell>
        <mxCell id="pL6nJIlF7tV2qEfX6wqD-23" style="edgeStyle=orthogonalEdgeStyle;html=1;labelBackgroundColor=none;endArrow=open;endSize=8;strokeColor=#ff0000;fontFamily=Verdana;fontSize=12;align=left;entryX=0;entryY=0.75;entryDx=0;entryDy=0;exitX=1;exitY=0.5;exitDx=0;exitDy=0;" edge="1" parent="1" source="pL6nJIlF7tV2qEfX6wqD-15" target="pL6nJIlF7tV2qEfX6wqD-25">
          <mxGeometry relative="1" as="geometry">
            <mxPoint x="680" y="310.34000000000003" as="sourcePoint" />
            <mxPoint x="917.9600000000005" y="190.00000000000009" as="targetPoint" />
            <Array as="points">
              <mxPoint x="860" y="270" />
            </Array>
          </mxGeometry>
        </mxCell>
        <mxCell id="pL6nJIlF7tV2qEfX6wqD-24" value="驳回" style="edgeLabel;html=1;align=center;verticalAlign=middle;resizable=0;points=[];" vertex="1" connectable="0" parent="pL6nJIlF7tV2qEfX6wqD-23">
          <mxGeometry x="-0.6516" relative="1" as="geometry">
            <mxPoint x="-23" as="offset" />
          </mxGeometry>
        </mxCell>
        <mxCell id="pL6nJIlF7tV2qEfX6wqD-25" value="已驳回" style="rounded=1;whiteSpace=wrap;html=1;arcSize=24;fillColor=#ffffc0;strokeColor=#ff0000;shadow=0;comic=0;labelBackgroundColor=none;fontFamily=Verdana;fontSize=12;fontColor=#000000;align=center;" vertex="1" parent="1">
          <mxGeometry x="860" y="110" width="120" height="60" as="geometry" />
        </mxCell>
        <mxCell id="pL6nJIlF7tV2qEfX6wqD-28" style="edgeStyle=orthogonalEdgeStyle;html=1;exitX=1;exitY=0.5;labelBackgroundColor=none;endArrow=open;endSize=8;strokeColor=#ff0000;fontFamily=Verdana;fontSize=12;align=left;exitDx=0;exitDy=0;entryX=0;entryY=0.5;entryDx=0;entryDy=0;" edge="1" parent="1">
          <mxGeometry relative="1" as="geometry">
            <mxPoint x="485" y="31" as="sourcePoint" />
            <mxPoint x="530.0000000000032" y="410.5" as="targetPoint" />
            <Array as="points">
              <mxPoint x="485" y="30" />
              <mxPoint x="330" y="30" />
              <mxPoint x="330" y="410" />
              <mxPoint x="530" y="410" />
            </Array>
          </mxGeometry>
        </mxCell>
        <mxCell id="pL6nJIlF7tV2qEfX6wqD-29" value="预审失败" style="edgeLabel;html=1;align=center;verticalAlign=middle;resizable=0;points=[];" vertex="1" connectable="0" parent="pL6nJIlF7tV2qEfX6wqD-28">
          <mxGeometry x="-0.6516" relative="1" as="geometry">
            <mxPoint x="-21" y="1" as="offset" />
          </mxGeometry>
        </mxCell>
        <mxCell id="pL6nJIlF7tV2qEfX6wqD-32" style="edgeStyle=orthogonalEdgeStyle;html=1;exitX=0;exitY=0.5;labelBackgroundColor=none;endArrow=open;endSize=8;strokeColor=#ff0000;fontFamily=Verdana;fontSize=12;align=left;exitDx=0;exitDy=0;" edge="1" parent="1" source="pL6nJIlF7tV2qEfX6wqD-12">
          <mxGeometry relative="1" as="geometry">
            <mxPoint x="485" y="30" as="sourcePoint" />
            <mxPoint x="530" y="410" as="targetPoint" />
            <Array as="points">
              <mxPoint x="330" y="150" />
              <mxPoint x="330" y="410" />
            </Array>
          </mxGeometry>
        </mxCell>
        <mxCell id="pL6nJIlF7tV2qEfX6wqD-33" value="审核失败" style="edgeLabel;html=1;align=center;verticalAlign=middle;resizable=0;points=[];" vertex="1" connectable="0" parent="pL6nJIlF7tV2qEfX6wqD-32">
          <mxGeometry x="-0.6516" relative="1" as="geometry">
            <mxPoint x="-21" y="1" as="offset" />
          </mxGeometry>
        </mxCell>
        <mxCell id="pL6nJIlF7tV2qEfX6wqD-34" value="最终态&lt;div&gt;（已失败、已发布）&lt;/div&gt;" style="shape=note;whiteSpace=wrap;html=1;backgroundOutline=1;darkOpacity=0.05;fillColor=#FFFFC0;" vertex="1" parent="1">
          <mxGeometry x="660" y="364.5" width="70" height="92" as="geometry" />
        </mxCell>
        <mxCell id="pL6nJIlF7tV2qEfX6wqD-35" style="edgeStyle=orthogonalEdgeStyle;rounded=0;orthogonalLoop=1;jettySize=auto;html=1;strokeColor=#FF0000;exitX=0.5;exitY=1;exitDx=0;exitDy=0;" edge="1" parent="1">
          <mxGeometry relative="1" as="geometry">
            <mxPoint x="544.5799999999999" y="300" as="sourcePoint" />
            <mxPoint x="545" y="400" as="targetPoint" />
          </mxGeometry>
        </mxCell>
        <mxCell id="pL6nJIlF7tV2qEfX6wqD-36" value="发布成功" style="edgeLabel;html=1;align=center;verticalAlign=middle;resizable=0;points=[];" vertex="1" connectable="0" parent="pL6nJIlF7tV2qEfX6wqD-35">
          <mxGeometry x="-0.1294" relative="1" as="geometry">
            <mxPoint y="-1" as="offset" />
          </mxGeometry>
        </mxCell>
        <mxCell id="pL6nJIlF7tV2qEfX6wqD-37" style="edgeStyle=orthogonalEdgeStyle;html=1;exitX=1;exitY=0.5;labelBackgroundColor=none;endArrow=open;endSize=8;strokeColor=#ff0000;fontFamily=Verdana;fontSize=12;align=left;exitDx=0;exitDy=0;entryX=1;entryY=0.5;entryDx=0;entryDy=0;" edge="1" parent="1" target="382b91b5511bd0f7-6">
          <mxGeometry relative="1" as="geometry">
            <mxPoint x="980" y="141" as="sourcePoint" />
            <mxPoint x="1235" y="266" as="targetPoint" />
            <Array as="points">
              <mxPoint x="1010" y="140" />
              <mxPoint x="1010" y="-200" />
            </Array>
          </mxGeometry>
        </mxCell>
        <mxCell id="pL6nJIlF7tV2qEfX6wqD-38" value="重新修改" style="edgeLabel;html=1;align=center;verticalAlign=middle;resizable=0;points=[];" vertex="1" connectable="0" parent="pL6nJIlF7tV2qEfX6wqD-37">
          <mxGeometry x="-0.6516" relative="1" as="geometry">
            <mxPoint y="-125" as="offset" />
          </mxGeometry>
        </mxCell>
        <mxCell id="pL6nJIlF7tV2qEfX6wqD-39" value="" style="endArrow=none;dashed=1;html=1;dashPattern=1 3;strokeWidth=2;rounded=0;entryX=0.5;entryY=1;entryDx=0;entryDy=0;" edge="1" parent="1">
          <mxGeometry width="50" height="50" relative="1" as="geometry">
            <mxPoint x="560" y="410.08" as="sourcePoint" />
            <mxPoint x="660" y="410.08" as="targetPoint" />
          </mxGeometry>
        </mxCell>
        <mxCell id="pL6nJIlF7tV2qEfX6wqD-42" style="edgeStyle=orthogonalEdgeStyle;html=1;exitX=0;exitY=0.5;labelBackgroundColor=none;endArrow=open;endSize=8;strokeColor=#ff0000;fontFamily=Verdana;fontSize=12;align=left;exitDx=0;exitDy=0;" edge="1" parent="1" source="pL6nJIlF7tV2qEfX6wqD-15">
          <mxGeometry relative="1" as="geometry">
            <mxPoint x="479.94" y="140" as="sourcePoint" />
            <mxPoint x="520" y="410" as="targetPoint" />
            <Array as="points">
              <mxPoint x="330" y="270" />
              <mxPoint x="330" y="410" />
            </Array>
          </mxGeometry>
        </mxCell>
        <mxCell id="pL6nJIlF7tV2qEfX6wqD-43" value="发布失败" style="edgeLabel;html=1;align=center;verticalAlign=middle;resizable=0;points=[];" vertex="1" connectable="0" parent="pL6nJIlF7tV2qEfX6wqD-42">
          <mxGeometry x="-0.6516" relative="1" as="geometry">
            <mxPoint x="-21" y="1" as="offset" />
          </mxGeometry>
        </mxCell>
        <mxCell id="pL6nJIlF7tV2qEfX6wqD-44" value="" style="ellipse;html=1;shape=endState;fillColor=#000000;strokeColor=#ff0000;rounded=1;shadow=0;comic=0;labelBackgroundColor=none;fontFamily=Verdana;fontSize=12;fontColor=#000000;align=center;" vertex="1" parent="1">
          <mxGeometry x="530" y="396" width="30" height="29" as="geometry" />
        </mxCell>
        <mxCell id="pL6nJIlF7tV2qEfX6wqD-45" value="失败可自动全局配置，已失败或已驳回" style="shape=note;whiteSpace=wrap;html=1;backgroundOutline=1;darkOpacity=0.05;fillColor=#FFFFC0;" vertex="1" parent="1">
          <mxGeometry x="40" y="104" width="70" height="92" as="geometry" />
        </mxCell>
        <mxCell id="pL6nJIlF7tV2qEfX6wqD-46" value="" style="endArrow=none;dashed=1;html=1;dashPattern=1 3;strokeWidth=2;rounded=0;entryX=0.5;entryY=1;entryDx=0;entryDy=0;exitX=1.02;exitY=0.466;exitDx=0;exitDy=0;exitPerimeter=0;" edge="1" parent="1" source="pL6nJIlF7tV2qEfX6wqD-45">
          <mxGeometry width="50" height="50" relative="1" as="geometry">
            <mxPoint x="220" y="29.579999999999984" as="sourcePoint" />
            <mxPoint x="320" y="29.579999999999984" as="targetPoint" />
          </mxGeometry>
        </mxCell>
        <mxCell id="pL6nJIlF7tV2qEfX6wqD-49" value="" style="endArrow=none;dashed=1;html=1;dashPattern=1 3;strokeWidth=2;rounded=0;exitX=1.02;exitY=0.466;exitDx=0;exitDy=0;exitPerimeter=0;" edge="1" parent="1">
          <mxGeometry width="50" height="50" relative="1" as="geometry">
            <mxPoint x="110" y="157" as="sourcePoint" />
            <mxPoint x="330" y="157" as="targetPoint" />
          </mxGeometry>
        </mxCell>
        <mxCell id="pL6nJIlF7tV2qEfX6wqD-50" value="" style="endArrow=none;dashed=1;html=1;dashPattern=1 3;strokeWidth=2;rounded=0;exitX=1.02;exitY=0.466;exitDx=0;exitDy=0;exitPerimeter=0;" edge="1" parent="1">
          <mxGeometry width="50" height="50" relative="1" as="geometry">
            <mxPoint x="110" y="167" as="sourcePoint" />
            <mxPoint x="330" y="270" as="targetPoint" />
          </mxGeometry>
        </mxCell>
      </root>
    </mxGraphModel>
  </diagram>
</mxfile>
